<svg width="303" height="382" viewBox="0 0 303 382" fill="none" xmlns="http://www.w3.org/2000/svg">
<g filter="url(#filter0_f_2_11)">
<path d="M80.9763 74.6482C216.369 352.428 209.336 356.929 34.9138 101.401C26.1534 88.5677 30.1272 70.9307 43.584 63.1614C56.9926 55.42 74.1927 60.7306 80.9763 74.6482Z" fill="#CC4B00"/>
<path d="M144.801 52.0934C324.572 425.204 314.434 431.655 79.0011 90.323C66.3532 71.986 72.0387 46.7331 91.3301 35.5952C110.548 24.4997 135.168 32.102 144.801 52.0934Z" fill="#CC4B00"/>
</g>
<path d="M80.9763 74.6482C216.369 352.428 209.336 356.929 34.9138 101.401C26.1534 88.5677 30.1272 70.9307 43.584 63.1614C56.9926 55.42 74.1927 60.7306 80.9763 74.6482Z" fill="#FF6F1D"/>
<path d="M58.3934 68.0411C129.557 209.078 126.764 210.91 39.5407 78.979C36.0713 73.7314 37.6908 66.5639 43.1389 63.4185C48.571 60.2822 55.5678 62.4411 58.3934 68.0411Z" fill="#FEE440"/>
<path d="M144.801 52.0934C324.572 425.204 314.434 431.655 79.0012 90.323C66.3533 71.986 72.0388 46.7331 91.3302 35.5952C110.548 24.4997 135.168 32.102 144.801 52.0934Z" fill="#FF6F1D"/>
<path d="M114.717 42.4344C208.646 231.889 204.364 234.658 86.278 58.9431C80.9554 51.0229 83.4033 40.1718 91.6674 35.4005C99.9045 30.6448 110.492 33.9129 114.717 42.4344Z" fill="#FEE440"/>
<defs>
<filter id="filter0_f_2_11" x="0.251953" y="0.478516" width="298.656" height="368.908" filterUnits="userSpaceOnUse" color-interpolation-filters="sRGB">
<feFlood flood-opacity="0" result="BackgroundImageFix"/>
<feBlend mode="normal" in="SourceGraphic" in2="BackgroundImageFix" result="shape"/>
<feGaussianBlur stdDeviation="15" result="effect1_foregroundBlur_2_11"/>
</filter>
</defs>
</svg>
