<?xml version="1.0" encoding="UTF-8" standalone="no"?>
<svg
   width="231"
   height="40"
   viewBox="0 0 231 40"
   fill="none"
   version="1.1"
   id="svg36"
   sodipodi:docname="header-logo2.svg"
   inkscape:version="1.2.2 (732a01da63, 2022-12-09)"
   xmlns:inkscape="http://www.inkscape.org/namespaces/inkscape"
   xmlns:sodipodi="http://sodipodi.sourceforge.net/DTD/sodipodi-0.dtd"
   xmlns="http://www.w3.org/2000/svg"
   xmlns:svg="http://www.w3.org/2000/svg">
  <defs
     id="defs40" />
  <sodipodi:namedview
     id="namedview38"
     pagecolor="#505050"
     bordercolor="#eeeeee"
     borderopacity="1"
     inkscape:showpageshadow="0"
     inkscape:pageopacity="0"
     inkscape:pagecheckerboard="0"
     inkscape:deskcolor="#505050"
     showgrid="false"
     inkscape:zoom="2.6190476"
     inkscape:cx="71.209091"
     inkscape:cy="8.0181818"
     inkscape:window-width="3440"
     inkscape:window-height="1417"
     inkscape:window-x="-8"
     inkscape:window-y="-8"
     inkscape:window-maximized="1"
     inkscape:current-layer="svg36" />
  <path
     d="M102.528 3.01314C97.1613 3.01314 93.3098 4.33214 90.9744 6.97066C88.632 9.60918 87.461 13.8558 87.461 19.7097C87.461 25.5708 88.632 29.891 90.9744 32.6702C93.3098 35.4494 97.1261 36.8388 102.423 36.8388C107.713 36.8388 111.546 35.4318 113.924 32.6174C116.294 29.803 117.48 25.4652 117.48 19.6042C117.48 13.7502 116.329 9.52122 114.029 6.91788C111.722 4.31454 107.889 3.01314 102.528 3.01314ZM134.658 3.01314C129.29 3.01314 125.439 4.33214 123.104 6.97066C120.761 9.60918 119.59 13.8558 119.59 19.7097C119.59 25.5708 120.761 29.891 123.104 32.6702C125.439 35.4494 129.255 36.8388 134.552 36.8388C139.842 36.8388 143.675 35.4318 146.053 32.6174C148.423 29.803 149.609 25.4652 149.609 19.6042C149.609 13.7502 148.458 9.52122 146.158 6.91788C143.851 4.31454 140.018 3.01314 134.658 3.01314ZM192.838 3.01314C189.096 3.01314 186.169 3.98065 184.059 5.91556C181.949 7.85048 180.894 10.5594 180.894 14.0422C180.894 17.5251 182.301 20.234 185.114 22.1689C186.029 22.8022 186.82 23.2662 187.488 23.5617C188.157 23.8643 188.983 24.2163 189.968 24.6173C190.953 25.0254 191.698 25.3524 192.205 25.5986C192.718 25.8449 193.105 26.0737 193.366 26.2848C193.633 26.4959 193.767 26.7775 193.767 27.1293C193.767 27.9032 193.221 28.2899 192.131 28.2899C190.478 28.2899 187.295 27.692 182.582 26.4959L181.843 35.4143C185.571 36.3641 189.377 36.8388 193.26 36.8388C197.15 36.8388 200.132 35.8783 202.207 33.9574C204.283 32.0436 205.32 29.3454 205.32 25.8625C205.32 22.3797 203.949 19.7412 201.205 17.947C200.256 17.3489 199.507 16.9164 198.958 16.649C198.416 16.3887 197.607 16.0366 196.531 15.5934C195.462 15.1571 194.829 14.8931 194.632 14.8017C194.442 14.7172 194.196 14.6223 193.893 14.5167C193.598 14.4112 193.397 14.3232 193.292 14.2528C193.186 14.1825 193.028 14.0843 192.817 13.9577C192.606 13.8381 192.5 13.6199 192.5 13.3033C192.5 12.459 193.186 12.0366 194.558 12.0366C195.929 12.0366 198.814 12.4766 203.21 13.3561L204.424 4.06824C200.449 3.36463 196.587 3.01314 192.838 3.01314ZM49.9081 3.54095L48.6422 36.311H58.5077V20.6911H58.7715L61.8315 36.311H71.0637L74.1765 20.6911H74.4403V36.311H84.4011L83.1874 3.54095H69.3229L66.8961 18.3692H66.4212L63.9417 3.54095H49.9081ZM152.774 3.54095V36.311H163.589V25.018H164.434L167.704 36.311H179.364L174.457 22.4323C175.899 21.4824 176.962 20.3816 177.644 19.1292C178.333 17.8838 178.678 16.2058 178.678 14.095C178.678 10.4715 177.711 7.80467 175.776 6.09491C173.842 4.39219 170.835 3.54095 166.755 3.54095H152.774ZM102.497 12.0894C104.009 12.0894 104.994 12.5363 105.451 13.4299C105.908 14.3305 106.137 16.2234 106.137 19.1081V21.5355C106.137 24.4555 105.944 26.3377 105.557 27.182C105.17 28.0264 104.202 28.4483 102.655 28.4483C101.107 28.4483 100.105 28.0088 99.6477 27.1293C99.1905 26.2498 98.9617 24.3323 98.9617 21.3772V19.0554C98.9617 16.1706 99.1729 14.2884 99.595 13.4089C100.017 12.5294 100.984 12.0894 102.497 12.0894ZM134.626 12.0894C136.138 12.0894 137.123 12.5363 137.58 13.4299C138.037 14.3305 138.266 16.2234 138.266 19.1081V21.5355C138.266 24.4555 138.073 26.3377 137.686 27.182C137.299 28.0264 136.332 28.4483 134.784 28.4483C133.237 28.4483 132.234 28.0088 131.777 27.1293C131.32 26.2498 131.091 24.3323 131.091 21.3772V19.0554C131.091 16.1706 131.302 14.2884 131.724 13.4089C132.146 12.5294 133.113 12.0894 134.626 12.0894ZM163.378 12.1949H164.75C165.489 12.1949 166.034 12.4237 166.386 12.8811C166.737 13.3384 166.913 14.1651 166.913 15.3612C166.913 16.5574 166.744 17.391 166.407 17.8624C166.076 18.3409 165.506 18.5803 164.698 18.5803H163.378V12.1949ZM8.49246 24.7096C8.48178 24.7214 8.46696 24.7287 8.4566 24.7408C8.34841 24.8675 8.31954 24.8265 8.37565 24.8822C8.42114 24.8351 8.45021 24.7638 8.49246 24.7096Z"
     fill="#B5CEA8"
     id="path28" />
  <path
     d="M207.526 6.68917L230.475 15.7654V23.8921L207.526 33.2327V24.8421L220.082 19.7762L207.526 15.1325V6.68917Z"
     fill="#CE9178"
     id="path34" />
</svg>
