<?xml version="1.0" encoding="UTF-8" standalone="no"?>
<svg
   width="231"
   height="40"
   viewBox="0 0 231 40"
   fill="none"
   version="1.1"
   id="svg36"
   sodipodi:docname="header-logo2.svg"
   inkscape:version="1.2.2 (732a01da63, 2022-12-09)"
   xmlns:inkscape="http://www.inkscape.org/namespaces/inkscape"
   xmlns:sodipodi="http://sodipodi.sourceforge.net/DTD/sodipodi-0.dtd"
   xmlns="http://www.w3.org/2000/svg"
   xmlns:svg="http://www.w3.org/2000/svg">
  <defs
     id="defs40" />
  <sodipodi:namedview
     id="namedview38"
     pagecolor="#505050"
     bordercolor="#eeeeee"
     borderopacity="1"
     inkscape:showpageshadow="0"
     inkscape:pageopacity="0"
     inkscape:pagecheckerboard="0"
     inkscape:deskcolor="#505050"
     showgrid="false"
     inkscape:zoom="3.7038926"
     inkscape:cx="44.412735"
     inkscape:cy="63.986737"
     inkscape:window-width="3440"
     inkscape:window-height="1417"
     inkscape:window-x="-8"
     inkscape:window-y="-8"
     inkscape:window-maximized="1"
     inkscape:current-layer="svg36" />
  <path
     d="m 100.72834,3.01314 c -5.366697,0 -9.218197,1.319 -11.553597,3.95752 -2.3424,2.63852 -3.5134,6.88514 -3.5134,12.73904 0,5.8611 1.171,10.1813 3.5134,12.9605 2.3354,2.7792 6.1517,4.1686 11.448597,4.1686 5.29,0 9.123,-1.407 11.501,-4.2214 2.37,-2.8144 3.556,-7.1522 3.556,-13.0132 0,-5.854 -1.151,-10.08298 -3.451,-12.68632 -2.307,-2.60334 -6.14,-3.90474 -11.501,-3.90474 z m 32.13,0 c -5.368,0 -9.219,1.319 -11.554,3.95752 -2.343,2.63852 -3.514,6.88514 -3.514,12.73904 0,5.8611 1.171,10.1813 3.514,12.9605 2.335,2.7792 6.151,4.1686 11.448,4.1686 5.29,0 9.123,-1.407 11.501,-4.2214 2.37,-2.8144 3.556,-7.1522 3.556,-13.0132 0,-5.854 -1.151,-10.08298 -3.451,-12.68632 -2.307,-2.60334 -6.14,-3.90474 -11.5,-3.90474 z m 58.18,0 c -3.742,0 -6.669,0.96751 -8.779,2.90242 -2.11,1.93492 -3.165,4.64384 -3.165,8.12664 0,3.4829 1.407,6.1918 4.22,8.1267 0.915,0.6333 1.706,1.0973 2.374,1.3928 0.669,0.3026 1.495,0.6546 2.48,1.0556 0.985,0.4081 1.73,0.7351 2.237,0.9813 0.513,0.2463 0.9,0.4751 1.161,0.6862 0.267,0.2111 0.401,0.4927 0.401,0.8445 0,0.7739 -0.546,1.1606 -1.636,1.1606 -1.653,0 -4.836,-0.5979 -9.549,-1.794 l -0.739,8.9184 c 3.728,0.9498 7.534,1.4245 11.417,1.4245 3.89,0 6.872,-0.9605 8.947,-2.8814 2.076,-1.9138 3.113,-4.612 3.113,-8.0949 0,-3.4828 -1.371,-6.1213 -4.115,-7.9155 -0.949,-0.5981 -1.698,-1.0306 -2.247,-1.298 -0.542,-0.2603 -1.351,-0.6124 -2.427,-1.0556 -1.069,-0.4363 -1.702,-0.7003 -1.899,-0.7917 -0.19,-0.0845 -0.436,-0.1794 -0.739,-0.285 -0.295,-0.1055 -0.496,-0.1935 -0.601,-0.2639 -0.106,-0.0703 -0.264,-0.1685 -0.475,-0.2951 -0.211,-0.1196 -0.317,-0.3378 -0.317,-0.6544 0,-0.8443 0.686,-1.2667 2.058,-1.2667 1.371,0 4.256,0.44 8.652,1.3195 l 1.214,-9.28786 c -3.975,-0.70361 -7.837,-1.0551 -11.586,-1.0551 z M 48.108443,3.54095 46.842543,36.311 h 9.8655 V 20.6911 h 0.2638 l 3.06,15.6199 h 9.2322 l 3.1128,-15.6199 h 0.2638 V 36.311 h 9.9608 l -1.2137,-32.77005 h -13.8645 l -2.4268,14.82825 h -0.4749 l -2.4795,-14.82825 z m 102.865897,0 V 36.311 h 10.815 V 25.018 h 0.845 l 3.27,11.293 h 11.66 l -4.907,-13.8787 c 1.442,-0.9499 2.505,-2.0507 3.187,-3.3031 0.689,-1.2454 1.034,-2.9234 1.034,-5.0342 0,-3.6235 -0.967,-6.29033 -2.902,-8.00009 -1.934,-1.70272 -4.941,-2.55396 -9.021,-2.55396 z m -50.277,8.54845 c 1.512,0 2.497,0.4469 2.954,1.3405 0.457,0.9006 0.686,2.7935 0.686,5.6782 v 2.4274 c 0,2.92 -0.193,4.8022 -0.58,5.6465 -0.387,0.8444 -1.355,1.2663 -2.902,1.2663 -1.548,0 -2.55,-0.4395 -3.007297,-1.319 -0.4572,-0.8795 -0.686,-2.797 -0.686,-5.7521 v -2.3218 c 0,-2.8848 0.2112,-4.767 0.6333,-5.6465 0.422,-0.8795 1.388997,-1.3195 2.901997,-1.3195 z m 32.129,0 c 1.512,0 2.497,0.4469 2.954,1.3405 0.457,0.9006 0.686,2.7935 0.686,5.6782 v 2.4274 c 0,2.92 -0.193,4.8022 -0.58,5.6465 -0.387,0.8444 -1.354,1.2663 -2.902,1.2663 -1.547,0 -2.55,-0.4395 -3.007,-1.319 -0.457,-0.8795 -0.686,-2.797 -0.686,-5.7521 v -2.3218 c 0,-2.8848 0.211,-4.767 0.633,-5.6465 0.422,-0.8795 1.389,-1.3195 2.902,-1.3195 z m 28.752,0.1055 h 1.372 c 0.739,0 1.284,0.2288 1.636,0.6862 0.351,0.4573 0.527,1.284 0.527,2.4801 0,1.1962 -0.169,2.0298 -0.506,2.5012 -0.331,0.4785 -0.901,0.7179 -1.709,0.7179 h -1.32 z M 6.692803,24.7096 c -0.01068,0.0118 -0.0255,0.0191 -0.03586,0.0312 -0.10819,0.1267 -0.13706,0.0857 -0.08095,0.1414 0.04549,-0.0471 0.07456,-0.1184 0.11681,-0.1726 z"
     fill="#b5cea8"
     id="path28" />
  <path
     d="M207.526 6.68917L230.475 15.7654V23.8921L207.526 33.2327V24.8421L220.082 19.7762L207.526 15.1325V6.68917Z"
     fill="#CE9178"
     id="path34" />
</svg>
