<svg width="445" height="200" viewBox="0 0 445 200" fill="none" xmlns="http://www.w3.org/2000/svg">
<path d="M445 100C445 155.228 400.228 200 345 200C289.771 200 245 155.228 245 100C245 44.7715 289.771 0 345 0C400.228 0 445 44.7715 445 100Z" fill="#FF6F1D"/>
<path d="M342.208 86.944C341.014 91.0507 338.998 94.112 336.16 96.128C333.398 98.144 329.627 99.5627 324.848 100.384C328.955 102.027 331.979 103.968 333.92 106.208C335.862 108.373 336.832 110.949 336.832 113.936C336.832 115.579 336.571 117.296 336.048 119.088C334.406 124.389 330.075 128.645 323.056 131.856C316.038 134.992 307.414 136.56 297.184 136.56C288.971 136.56 282.102 135.776 276.576 134.208C271.051 132.565 266.944 130.4 264.256 127.712C261.568 124.949 260.224 121.851 260.224 118.416C260.224 116.997 260.448 115.616 260.896 114.272C261.867 111.061 263.622 108.784 266.16 107.44C268.699 106.021 271.723 105.312 275.232 105.312C279.787 105.312 283.483 106.32 286.32 108.336C289.158 110.352 290.576 112.965 290.576 116.176C290.576 117.445 290.352 118.827 289.904 120.32C289.531 121.813 288.971 123.083 288.224 124.128C290.166 124.949 292.592 125.36 295.504 125.36C298.342 125.36 300.731 124.613 302.672 123.12C304.614 121.627 305.958 119.424 306.704 116.512C307.152 115.019 307.376 113.637 307.376 112.368C307.376 109.755 306.555 107.701 304.912 106.208C303.344 104.64 301.291 103.856 298.752 103.856C294.496 103.856 292.368 102.587 292.368 100.048C292.368 99.7493 292.443 99.2267 292.592 98.48C293.115 96.9867 293.824 95.8667 294.72 95.12C295.691 94.3733 297.035 94 298.752 94H302C304.614 93.9253 306.816 93.0667 308.608 91.424C310.475 89.7067 311.856 87.4293 312.752 84.592C313.2 82.8 313.424 81.2693 313.424 80C313.424 77.1627 312.64 75.072 311.072 73.728C309.504 72.3093 307.638 71.6 305.472 71.6C303.904 71.6 302.486 71.7493 301.216 72.048C301.44 73.2427 301.552 74.4747 301.552 75.744C301.552 76.864 301.44 77.984 301.216 79.104C300.47 81.9413 298.827 84.256 296.288 86.048C293.75 87.84 290.315 88.736 285.984 88.736C281.579 88.736 278.144 87.84 275.68 86.048C273.291 84.256 272.096 81.792 272.096 78.656C272.096 77.3867 272.32 76.0427 272.768 74.624C273.963 70.592 277.286 67.3813 282.736 64.992C288.187 62.6027 296.288 61.408 307.04 61.408C313.835 61.408 319.958 62.304 325.408 64.096C330.859 65.888 335.115 68.3893 338.176 71.6C341.312 74.736 342.88 78.32 342.88 82.352C342.88 83.8453 342.656 85.376 342.208 86.944Z" fill="white"/>
<path d="M393.132 61.408C404.332 61.408 412.77 63.5733 418.444 67.904C424.119 72.16 426.956 78.432 426.956 86.72C426.956 90.8267 426.21 95.568 424.716 100.944C422.252 109.605 418.93 116.475 414.748 121.552C410.567 126.629 405.042 130.325 398.172 132.64C391.378 134.955 382.642 136.075 371.964 136L341.5 135.888C339.932 135.888 338.738 135.627 337.916 135.104C337.02 134.581 336.572 133.872 336.572 132.976C336.572 132.528 336.684 132.043 336.908 131.52C337.132 130.848 337.468 130.363 337.916 130.064C338.29 129.765 338.887 129.355 339.708 128.832C340.903 128.16 341.836 127.413 342.508 126.592C343.255 125.771 343.89 124.464 344.412 122.672L358.076 74.512C358.375 73.5413 358.524 72.608 358.524 71.712C358.524 70.8907 358.375 70.2187 358.076 69.696C357.852 69.0987 357.516 68.4267 357.068 67.68C356.396 66.7093 356.06 65.9253 356.06 65.328C356.06 65.104 356.135 64.6933 356.284 64.096C356.583 63.1253 357.218 62.4533 358.188 62.08C359.234 61.632 360.802 61.408 362.892 61.408H393.132ZM396.044 98.48C397.986 91.4613 398.956 85.936 398.956 81.904C398.956 77.9467 398.135 75.2213 396.492 73.728C394.85 72.2347 392.498 71.488 389.436 71.488H386.972L371.852 125.92H374.54C377.975 125.92 380.85 125.211 383.164 123.792C385.554 122.299 387.756 119.611 389.772 115.728C391.788 111.771 393.879 106.021 396.044 98.48Z" fill="white"/>
<path d="M33.3041 136.672C27.0321 136.672 21.3948 135.515 16.3921 133.2C11.3894 130.885 7.39477 127.488 4.4081 123.008C1.4961 118.453 0.0401001 112.965 0.0401001 106.544C0.0401001 102.064 0.8241 97.2107 2.3921 91.984C5.82677 80.784 11.0161 72.72 17.9601 67.792C24.9041 62.7893 32.3334 60.288 40.2481 60.288C44.5041 60.288 48.2748 60.9227 51.5601 62.192C54.8454 63.4613 57.8694 65.2907 60.6321 67.68L63.6561 65.328C65.6721 63.76 67.3521 62.6773 68.6961 62.08C70.1148 61.4827 71.6828 61.184 73.4001 61.184C75.2668 61.184 76.7601 61.5947 77.8801 62.416C79.0001 63.2373 79.5601 64.432 79.5601 66C79.5601 66.8213 79.4108 67.6427 79.1121 68.464L72.8401 85.936C72.1681 87.952 71.3468 89.3707 70.3761 90.192C69.4801 91.0133 68.0988 91.424 66.2321 91.424C64.2908 91.424 62.6854 90.752 61.4161 89.408C60.2214 87.9893 58.8401 85.6 57.2721 82.24C55.4801 78.7307 54.0241 76.416 52.9041 75.296C51.7841 74.176 50.1414 73.616 47.9761 73.616C44.9148 73.616 41.9654 75.52 39.1281 79.328C36.2908 83.0613 33.7148 88.6987 31.4001 96.24C29.4588 102.587 28.4881 107.888 28.4881 112.144C28.4881 115.877 29.1974 118.677 30.6161 120.544C32.0348 122.336 33.9388 123.232 36.3281 123.232C39.8374 123.232 42.7121 122.448 44.9521 120.88C47.2668 119.312 49.6188 117.184 52.0081 114.496C53.5014 112.853 54.6961 111.659 55.5921 110.912C56.5628 110.091 57.5708 109.68 58.6161 109.68C59.9601 109.68 61.3788 110.352 62.8721 111.696C64.3654 113.04 65.0748 114.384 65.0001 115.728C65.0748 117.371 63.7308 119.909 60.9681 123.344C58.2801 126.779 54.5094 129.877 49.6561 132.64C44.8774 135.328 39.4268 136.672 33.3041 136.672Z" fill="white"/>
<path d="M157.443 84.144C156.248 88.4747 154.008 91.872 150.723 94.336C147.438 96.7253 143.294 98.2187 138.291 98.816C141.875 99.1147 144.563 100.16 146.355 101.952C148.147 103.744 149.043 106.096 149.043 109.008C149.043 110.128 148.856 111.509 148.483 113.152L147.251 118.64C147.102 119.387 147.027 119.909 147.027 120.208C147.027 121.179 147.251 121.925 147.699 122.448C148.147 122.896 148.782 123.12 149.603 123.12C151.171 123.12 152.291 123.344 152.963 123.792C153.71 124.24 153.971 125.061 153.747 126.256C153.448 127.973 152.552 129.653 151.059 131.296C149.566 132.939 147.438 134.32 144.675 135.44C141.987 136.485 138.702 137.008 134.819 137.008C129.891 137.008 125.971 135.925 123.059 133.76C120.147 131.52 118.691 128.347 118.691 124.24C118.691 122.672 118.915 120.992 119.363 119.2L121.155 112.032C121.454 111.061 121.603 110.053 121.603 109.008C121.603 107.291 121.006 106.059 119.811 105.312C118.691 104.565 116.862 104.192 114.323 104.192H110.067L104.915 122.784C104.766 123.232 104.691 123.792 104.691 124.464C104.691 125.509 104.952 126.405 105.475 127.152C105.998 127.899 106.707 128.683 107.603 129.504C108.275 130.027 108.798 130.549 109.171 131.072C109.544 131.52 109.731 132.005 109.731 132.528C109.731 133.797 109.134 134.693 107.939 135.216C106.744 135.739 104.99 136 102.675 136H74.563C72.6216 136 71.1656 135.664 70.195 134.992C69.2243 134.245 68.8883 133.237 69.187 131.968C69.3363 131.296 69.635 130.773 70.083 130.4C70.4563 129.952 71.0536 129.467 71.875 128.944C73.1443 128.197 74.1523 127.413 74.899 126.592C75.6456 125.771 76.243 124.501 76.691 122.784L90.355 74.512C90.6536 73.5413 90.803 72.608 90.803 71.712C90.803 70.8907 90.6536 70.2187 90.355 69.696C90.131 69.0987 89.795 68.4267 89.347 67.68C88.675 66.7093 88.339 65.9253 88.339 65.328C88.339 65.104 88.4136 64.6933 88.563 64.096C88.8616 63.1253 89.4963 62.4533 90.467 62.08C91.5123 61.632 93.0803 61.408 95.171 61.408H132.691C137.843 61.408 142.323 62.192 146.131 63.76C150.014 65.328 152.963 67.4933 154.979 70.256C157.07 72.944 158.115 76.0053 158.115 79.44C158.115 81.008 157.891 82.576 157.443 84.144ZM128.771 83.024C129.144 81.3067 129.331 80 129.331 79.104C129.331 75.1467 127.166 73.168 122.835 73.168H118.131L113.203 92.992H117.907C120.819 92.992 123.096 92.2827 124.739 90.864C126.456 89.4453 127.8 86.832 128.771 83.024Z" fill="white"/>
<path d="M229.995 61.408C232.758 61.408 234.886 62.0053 236.379 63.2C237.947 64.3947 238.731 66.0373 238.731 68.128C238.731 69.1733 238.582 70.1813 238.283 71.152L235.371 81.568C234.849 83.584 234.065 85.0027 233.019 85.824C232.049 86.5707 230.63 86.944 228.763 86.944C226.971 86.944 225.553 86.5707 224.507 85.824C223.537 85.0027 222.79 83.696 222.267 81.904L220.475 75.52C220.102 74.176 219.654 73.28 219.131 72.832C218.609 72.384 217.601 72.16 216.107 72.16H204.347L198.747 92.096H203.675C204.198 92.096 204.907 91.7227 205.803 90.976L209.611 87.616C210.731 86.6453 211.702 85.936 212.523 85.488C213.345 85.04 214.353 84.816 215.547 84.816C216.891 84.816 217.974 85.1893 218.795 85.936C219.691 86.608 220.139 87.504 220.139 88.624C220.139 88.9227 220.065 89.3707 219.915 89.968L215.323 105.536C214.875 107.179 214.091 108.411 212.971 109.232C211.926 109.979 210.769 110.352 209.499 110.352C207.409 110.352 205.841 109.269 204.795 107.104L202.891 103.184C202.369 102.064 201.547 101.504 200.427 101.504H196.059L189.451 125.248H199.307C200.726 125.248 201.958 124.987 203.003 124.464C204.123 123.867 205.318 122.859 206.587 121.44L213.307 114.048C214.502 112.779 215.622 111.883 216.667 111.36C217.787 110.763 219.131 110.464 220.699 110.464C222.342 110.464 223.686 110.837 224.731 111.584C225.777 112.331 226.299 113.451 226.299 114.944C226.299 115.541 226.187 116.251 225.963 117.072L222.715 128.384C221.894 131.221 220.699 133.2 219.131 134.32C217.563 135.44 215.286 136 212.299 136H158.875C157.307 136 156.113 135.739 155.291 135.216C154.395 134.693 153.947 133.984 153.947 133.088C153.947 132.64 154.059 132.155 154.283 131.632C154.582 130.811 155.067 130.176 155.739 129.728C156.411 129.28 156.822 129.019 156.971 128.944C158.166 128.197 159.137 127.451 159.883 126.704C160.63 125.883 161.265 124.576 161.787 122.784L175.563 74.512C175.862 73.5413 176.011 72.6453 176.011 71.824C176.011 70.928 175.862 70.1813 175.563 69.584C175.339 68.9867 174.966 68.352 174.443 67.68C173.771 66.7093 173.435 65.9253 173.435 65.328C173.435 65.104 173.51 64.6933 173.659 64.096C173.958 63.1253 174.63 62.4533 175.675 62.08C176.721 61.632 178.251 61.408 180.267 61.408H229.995Z" fill="white"/>
</svg>
