<svg width="200" height="200" viewBox="0 0 200 200" fill="none" xmlns="http://www.w3.org/2000/svg">
<circle cx="100" cy="100" r="100" fill="#FF6F1D"/>
<path d="M97.2083 86.944C96.0136 91.0507 93.9976 94.112 91.1603 96.128C88.3976 98.144 84.6269 99.5627 79.8483 100.384C83.9549 102.027 86.9789 103.968 88.9203 106.208C90.8616 108.373 91.8323 110.949 91.8323 113.936C91.8323 115.579 91.5709 117.296 91.0483 119.088C89.4056 124.389 85.0749 128.645 78.0563 131.856C71.0376 134.992 62.4136 136.56 52.1843 136.56C43.9709 136.56 37.1016 135.776 31.5763 134.208C26.0509 132.565 21.9443 130.4 19.2563 127.712C16.5683 124.949 15.2243 121.851 15.2243 118.416C15.2243 116.997 15.4483 115.616 15.8963 114.272C16.8669 111.061 18.6216 108.784 21.1603 107.44C23.6989 106.021 26.7229 105.312 30.2323 105.312C34.7869 105.312 38.4829 106.32 41.3203 108.336C44.1576 110.352 45.5763 112.965 45.5763 116.176C45.5763 117.445 45.3523 118.827 44.9043 120.32C44.5309 121.813 43.9709 123.083 43.2242 124.128C45.1656 124.949 47.5923 125.36 50.5043 125.36C53.3416 125.36 55.7309 124.613 57.6723 123.12C59.6136 121.627 60.9576 119.424 61.7043 116.512C62.1523 115.019 62.3763 113.637 62.3763 112.368C62.3763 109.755 61.5549 107.701 59.9123 106.208C58.3443 104.64 56.2909 103.856 53.7523 103.856C49.4963 103.856 47.3683 102.587 47.3683 100.048C47.3683 99.7493 47.4429 99.2267 47.5923 98.48C48.1149 96.9867 48.8243 95.8667 49.7203 95.12C50.6909 94.3733 52.0349 94 53.7523 94H57.0003C59.6136 93.9253 61.8163 93.0667 63.6083 91.424C65.4749 89.7067 66.8563 87.4293 67.7523 84.592C68.2003 82.8 68.4243 81.2693 68.4243 80C68.4243 77.1627 67.6403 75.072 66.0723 73.728C64.5043 72.3093 62.6376 71.6 60.4723 71.6C58.9043 71.6 57.4856 71.7493 56.2163 72.048C56.4403 73.2427 56.5523 74.4747 56.5523 75.744C56.5523 76.864 56.4403 77.984 56.2163 79.104C55.4696 81.9413 53.8269 84.256 51.2883 86.048C48.7496 87.84 45.3149 88.736 40.9843 88.736C36.5789 88.736 33.1443 87.84 30.6803 86.048C28.2909 84.256 27.0963 81.792 27.0963 78.656C27.0963 77.3867 27.3203 76.0427 27.7683 74.624C28.9629 70.592 32.2856 67.3813 37.7363 64.992C43.1869 62.6027 51.2883 61.408 62.0403 61.408C68.8349 61.408 74.9576 62.304 80.4083 64.096C85.8589 65.888 90.1149 68.3893 93.1763 71.6C96.3123 74.736 97.8803 78.32 97.8803 82.352C97.8803 83.8453 97.6563 85.376 97.2083 86.944ZM148.132 61.408C159.332 61.408 167.77 63.5733 173.444 67.904C179.119 72.16 181.956 78.432 181.956 86.72C181.956 90.8267 181.21 95.568 179.716 100.944C177.252 109.605 173.93 116.475 169.748 121.552C165.567 126.629 160.042 130.325 153.172 132.64C146.378 134.955 137.642 136.075 126.964 136L96.5004 135.888C94.9324 135.888 93.7377 135.627 92.9164 135.104C92.0204 134.581 91.5724 133.872 91.5724 132.976C91.5724 132.528 91.6844 132.043 91.9084 131.52C92.1324 130.848 92.4684 130.363 92.9164 130.064C93.2897 129.765 93.887 129.355 94.7084 128.832C95.903 128.16 96.8364 127.413 97.5084 126.592C98.255 125.771 98.8897 124.464 99.4124 122.672L113.076 74.512C113.375 73.5413 113.524 72.608 113.524 71.712C113.524 70.8907 113.375 70.2187 113.076 69.696C112.852 69.0987 112.516 68.4267 112.068 67.68C111.396 66.7093 111.06 65.9253 111.06 65.328C111.06 65.104 111.135 64.6933 111.284 64.096C111.583 63.1253 112.218 62.4533 113.188 62.08C114.234 61.632 115.802 61.408 117.892 61.408H148.132ZM151.044 98.48C152.986 91.4613 153.956 85.936 153.956 81.904C153.956 77.9467 153.135 75.2213 151.492 73.728C149.85 72.2347 147.498 71.488 144.436 71.488H141.972L126.852 125.92H129.54C132.975 125.92 135.85 125.211 138.164 123.792C140.554 122.299 142.756 119.611 144.772 115.728C146.788 111.771 148.879 106.021 151.044 98.48Z" fill="white"/>
</svg>
