<svg xmlns="http://www.w3.org/2000/svg" version="1.1" xmlns:xlink="http://www.w3.org/1999/xlink" xmlns:svgjs="http://svgjs.dev/svgjs" width="1000" height="260" viewBox="0 0 1000 260"><g transform="matrix(1,0,0,1,-0.6060606060606233,0.21832165459537123)"><svg viewBox="0 0 396 103" data-background-color="#ffffff" preserveAspectRatio="xMidYMid meet" height="260" width="1000" xmlns="http://www.w3.org/2000/svg" xmlns:xlink="http://www.w3.org/1999/xlink"><g id="tight-bounds" transform="matrix(1,0,0,1,0.2400000000000091,-0.08648896316663013)"><svg viewBox="0 0 395.52 103.17297792633327" height="103.17297792633327" width="395.52"><g><svg viewBox="0 0 395.52 103.17297792633327" height="103.17297792633327" width="395.52"><g><svg viewBox="0 0 395.52 103.17297792633327" height="103.17297792633327" width="395.52"><g id="textblocktransform"><svg viewBox="0 0 395.52 103.17297792633327" height="103.17297792633327" width="395.52" id="textblock"><g><svg viewBox="0 0 395.52 103.17297792633327" height="103.17297792633327" width="395.52"><rect width="395.52" height="103.17297792633327" x="0" y="0" opacity="1" fill="#567568" data-fill-palette-color="tertiary"></rect><g transform="matrix(1,0,0,1,23.607599999999998,23.607599999999998)"><svg width="348.3048" viewBox="-0.20000000298023224 -33.29999923706055 210.0642274169922 33.75" height="55.95777792633328" data-palette-color="#f7f3e3"><g transform="matrix(1,0,0,1,0,0)"><g><svg width="22.4494853515625" viewBox="3.1600000858306885 -36.36000061035156 100.00999450683594 36.36000061035156" height="8.162" data-palette-color="#f7f3e3" id="scriptelement" x="187.41474206244945" y="-33.29999923706055"><path d="M16.05 0L16.05 0 3.16 0 3.16-36.36 16.16-36.36Q21.64-36.36 25.6-34.19 29.56-32.01 31.7-27.95 33.84-23.88 33.84-18.22L33.84-18.22Q33.84-12.54 31.7-8.45 29.56-4.37 25.58-2.18 21.59 0 16.05 0ZM10.85-29.78L10.85-6.59 15.73-6.59Q19.14-6.59 21.48-7.8 23.81-9.02 24.99-11.59 26.17-14.15 26.17-18.22L26.17-18.22Q26.17-22.25 24.99-24.8 23.81-27.36 21.48-28.57 19.16-29.78 15.75-29.78L15.75-29.78 10.85-29.78ZM64.1 0L39.52 0 39.52-36.36 64.02-36.36 64.02-30.02 47.21-30.02 47.21-21.36 62.76-21.36 62.76-15.02 47.21-15.02 47.21-6.34 64.1-6.34 64.1 0ZM68.18-36.36L76.72-36.36 85.51-8.74 85.84-8.74 94.65-36.36 103.17-36.36 90.64 0 80.73 0 68.18-36.36Z" opacity="1" transform="matrix(1,0,0,1,0,0)" fill="#f7f3e3" class="undefined-123" data-fill-palette-color="quaternary" id="p-123"></path></svg></g></g><path d="M53.7-33.3Q54.75-33.3 55.33-32.98 55.9-32.65 55.9-32.05L55.9-32.05Q55.9-31.8 55.75-31.4L55.75-31.4Q55.6-30.95 55.33-30.73 55.05-30.5 54.5-30.15L54.5-30.15Q53.7-29.7 53.23-29.15 52.75-28.6 52.4-27.45L52.4-27.45 46.3-5.95Q46.1-5.3 46.1-4.7L46.1-4.7Q46.1-4.15 46.28-3.78 46.45-3.4 46.75-2.9L46.75-2.9Q46.95-2.65 47.1-2.38 47.25-2.1 47.25-1.8L47.25-1.8Q47.25-1.7 47.15-1.3L47.15-1.3Q46.95-0.65 46.23-0.35 45.5-0.05 44.15-0.05L44.15-0.05 32.4-0.05Q31.35-0.05 30.78-0.4 30.2-0.75 30.2-1.35L30.2-1.35Q30.2-1.65 30.35-2L30.35-2Q30.5-2.35 30.78-2.63 31.05-2.9 31.28-3.03 31.5-3.15 31.6-3.25L31.6-3.25Q32.4-3.7 32.9-4.25 33.4-4.8 33.75-5.95L33.75-5.95 37.55-19.45 24.6-3.4Q23-1.45 22.03-0.73 21.05 0 19.8 0L19.8 0Q18.6 0 17.93-0.78 17.25-1.55 16.7-3.4L16.7-3.4 12-18.85 8.3-5.9Q8.1-5.25 8.1-4.65L8.1-4.65Q8.1-4.05 8.28-3.65 8.45-3.25 8.8-2.8L8.8-2.8Q9.25-2.15 9.25-1.75L9.25-1.75Q9.25-1.65 9.15-1.25L9.15-1.25Q8.95-0.55 8.25-0.28 7.55 0 6.15 0L6.15 0 2 0Q0.95 0 0.38-0.35-0.2-0.7-0.2-1.3L-0.2-1.3Q-0.2-1.6-0.05-1.95L-0.05-1.95Q0.15-2.5 0.6-2.8 1.05-3.1 1.15-3.15L1.15-3.15Q1.95-3.65 2.45-4.17 2.95-4.7 3.3-5.9L3.3-5.9 9.4-27.5 8.6-30.15Q8.35-30.9 8.35-31.6L8.35-31.6Q8.35-32.5 8.93-32.9 9.5-33.3 10.7-33.3L10.7-33.3 18.45-33.3Q19.95-33.3 20.68-32.65 21.4-32 21.85-30.4L21.85-30.4 26.85-13.8 40.4-30.65Q41.7-32.25 42.95-32.77 44.2-33.3 46.25-33.3L46.25-33.3 53.7-33.3ZM71.1-26.45Q77.9-26.45 81.12-23.7 84.35-20.95 84.35-16.5L84.35-16.5Q84.35-15 83.95-13.15L83.95-13.15Q83-9.05 80.4-5.98 77.8-2.9 74.02-1.23 70.25 0.45 65.85 0.45L65.85 0.45Q58.9 0.45 55.57-2.33 52.25-5.1 52.25-9.7L52.25-9.7Q52.25-11.25 52.65-13.15L52.65-13.15Q53.6-17.05 56.27-20.08 58.95-23.1 62.82-24.78 66.7-26.45 71.1-26.45L71.1-26.45ZM70.95-22Q69.9-22 68.72-20.13 67.55-18.25 65.95-13.05L65.95-13.05Q64.35-7.85 64.35-5.75L64.35-5.75Q64.35-4.65 64.7-4.28 65.05-3.9 65.65-3.9L65.65-3.9Q66.7-3.8 67.82-5.7 68.95-7.6 70.65-13.1L70.65-13.1Q72.2-17.95 72.2-20.15L72.2-20.15Q72.2-21.2 71.87-21.6 71.55-22 70.95-22L70.95-22ZM103.9-26.45Q110.7-26.45 113.92-23.7 117.15-20.95 117.15-16.5L117.15-16.5Q117.15-15 116.75-13.15L116.75-13.15Q115.8-9.05 113.2-5.98 110.6-2.9 106.82-1.23 103.05 0.45 98.65 0.45L98.65 0.45Q91.7 0.45 88.37-2.33 85.05-5.1 85.05-9.7L85.05-9.7Q85.05-11.25 85.45-13.15L85.45-13.15Q86.4-17.05 89.07-20.08 91.75-23.1 95.62-24.78 99.5-26.45 103.9-26.45L103.9-26.45ZM103.75-22Q102.7-22 101.52-20.13 100.35-18.25 98.75-13.05L98.75-13.05Q97.15-7.85 97.15-5.75L97.15-5.75Q97.15-4.65 97.5-4.28 97.85-3.9 98.45-3.9L98.45-3.9Q99.5-3.8 100.62-5.7 101.75-7.6 103.45-13.1L103.45-13.1Q105-17.95 105-20.15L105-20.15Q105-21.2 104.67-21.6 104.35-22 103.75-22L103.75-22ZM141.89-26.45Q144.69-26.45 146.37-24.75 148.04-23.05 148.04-20.55L148.04-20.55Q148.04-19.6 147.84-18.8L147.84-18.8Q147.34-16.75 145.94-15.65 144.54-14.55 142.59-14.55L142.59-14.55Q140.69-14.55 139.72-15.45 138.74-16.35 137.99-17.85L137.99-17.85Q137.59-18.7 137.24-19.1 136.89-19.5 136.44-19.5L136.44-19.5Q135.94-19.5 135.57-19.1 135.19-18.7 134.89-17.7L134.89-17.7 131.04-5.2Q130.94-4.95 130.94-4.45L130.94-4.45Q130.94-3.8 131.32-3.38 131.69-2.95 132.34-2.55L132.34-2.55Q132.94-2.15 133.14-1.9 133.34-1.65 133.29-1.25L133.29-1.25Q133.19-0.6 132.57-0.3 131.94 0 130.44 0L130.44 0 117.64 0Q116.34 0 115.77-0.43 115.19-0.85 115.34-1.55L115.34-1.55Q115.54-2.15 116.39-2.6L116.39-2.6Q117.14-3 117.64-3.55 118.14-4.1 118.49-5.3L118.49-5.3 122.94-19.75Q123.04-20 123.04-20.45L123.04-20.45Q123.04-21 122.82-21.3 122.59-21.6 122.09-22.05L122.09-22.05Q121.59-22.45 121.39-22.75 121.19-23.05 121.34-23.55L121.34-23.55Q121.64-24.7 124.49-25.58 127.34-26.45 130.44-26.45L130.44-26.45Q132.49-26.45 133.84-25.53 135.19-24.6 135.59-22.9L135.59-22.9Q137.99-26.45 141.89-26.45L141.89-26.45ZM162.74-26.9Q166.89-26.9 169.92-26.15 172.94-25.4 174.57-24.05 176.19-22.7 176.19-21L176.19-21Q176.19-19.25 174.82-18.15 173.44-17.05 170.99-17.05L170.99-17.05Q168.49-17.05 166.77-18.3 165.04-19.55 165.04-21.45L165.04-21.45Q165.04-22.1 165.24-22.7L165.24-22.7Q164.34-22.95 163.64-22.95L163.64-22.95Q162.39-22.95 161.57-22.35 160.74-21.75 160.79-20.65L160.79-20.65Q160.79-19.35 162.09-18.45 163.39-17.55 166.29-16.2L166.29-16.2Q168.79-15.1 170.42-14.18 172.04-13.25 173.17-11.85 174.29-10.45 174.29-8.55L174.29-8.55Q174.29-8.15 174.09-7.05L174.09-7.05Q173.29-3.7 169.64-1.75 165.99 0.2 160.04 0.2L160.04 0.2Q153.34 0.2 149.42-1.6 145.49-3.4 145.49-6.55L145.49-6.55Q145.49-8.7 146.79-9.8 148.09-10.9 150.24-10.9L150.24-10.9Q152.74-10.9 154.52-9.35 156.29-7.8 156.29-5.4L156.29-5.4Q156.29-4.75 156.14-4.05L156.14-4.05Q157.34-3.75 158.44-3.75L158.44-3.75Q159.74-3.75 160.59-4.45 161.44-5.15 161.44-6.4L161.44-6.4Q161.39-7.55 160.29-8.38 159.19-9.2 156.79-10.35L156.79-10.35Q154.54-11.4 153.09-12.33 151.64-13.25 150.62-14.65 149.59-16.05 149.59-17.95L149.59-17.95Q149.59-22.05 153.02-24.48 156.44-26.9 162.74-26.9L162.74-26.9Z" opacity="1" transform="matrix(1,0,0,1,0,0)" fill="#f7f3e3" class="wordmark-text-0" data-fill-palette-color="quaternary" id="text-0"></path></svg></g></svg></g></svg></g></svg></g></svg></g><defs></defs></svg><rect width="395.52" height="103.17297792633327" fill="none" stroke="none" visibility="hidden"></rect></g></svg></g></svg>