<svg width="335" height="444" viewBox="0 0 335 444" fill="none" xmlns="http://www.w3.org/2000/svg">
<path d="M313.563 340.813C316.877 346.552 314.911 353.891 309.171 357.205L213.042 412.705C207.303 416.019 199.964 414.052 196.65 408.313L60.1499 171.888L177.063 104.388L313.563 340.813Z" fill="#D9D9D9"/>
<path d="M318.537 371.427C321.851 377.167 319.884 384.506 314.145 387.82L289.03 402.32C283.291 405.633 275.951 403.667 272.638 397.927L264.138 383.205L310.037 356.705L318.537 371.427Z" fill="#636363"/>
<path d="M265.71 401.927C269.023 407.667 267.057 415.006 261.317 418.32L236.202 432.82C230.463 436.133 223.124 434.167 219.81 428.427L211.31 413.705L257.21 387.205L265.71 401.927Z" fill="#636363"/>
<path d="M177.063 104.388C44.7224 -4.06404 28.6953 5.40266 60.1499 171.888L177.063 104.388Z" fill="#D9D9D9"/>
<circle cx="169.174" cy="226.722" r="40" transform="rotate(150 169.174 226.722)" fill="#636363"/>
<circle cx="169.174" cy="226.722" r="32" transform="rotate(150 169.174 226.722)" fill="#0F0F0F"/>
<ellipse cx="186.027" cy="216.342" rx="9" ry="12.5" transform="rotate(-29.547 186.027 216.342)" fill="#D9D9D9"/>
<path d="M57.48 157.263L60.1499 171.888L61.6499 174.486L178.563 106.986L177.063 104.388L165.3 95.0134L57.48 157.263Z" fill="#D9D9D9"/>
</svg>
