<svg width="403" height="65" viewBox="0 0 403 65" fill="none" xmlns="http://www.w3.org/2000/svg">
<path d="M51.72 60.584C51.72 61.8 51.304 62.856 50.472 63.752C49.64 64.584 48.584 65 47.304 65H44.712C43.496 65 42.44 64.584 41.544 63.752C40.712 62.856 40.296 61.8 40.296 60.584V31.688C40.296 31.432 40.168 31.272 39.912 31.208C39.72 31.144 39.56 31.208 39.432 31.4L30.216 50.408C30.024 50.92 29.608 51.368 28.968 51.752C28.328 52.136 27.72 52.456 27.144 52.712C26.632 52.904 26.376 53 26.376 53C24.392 53 23.08 52.136 22.44 50.408L13.224 31.4C13.16 31.208 13 31.144 12.744 31.208C12.488 31.272 12.36 31.432 12.36 31.688V60.584C12.36 61.8 11.912 62.856 11.016 63.752C10.184 64.584 9.16 65 7.944 65H5.256C4.04 65 2.984 64.584 2.088 63.752C1.256 62.856 0.84 61.8 0.84 60.584V4.51999C0.84 3.24 1.256 2.184 2.088 1.352C2.984 0.519995 4.04 0.103994 5.256 0.103994H8.04C9.832 0.103994 11.144 0.935995 11.976 2.6C12.296 3.304 12.936 4.67999 13.896 6.72799C14.92 8.712 16.104 11.08 17.448 13.832C18.792 16.584 20.168 19.496 21.576 22.568C23.048 25.576 24.456 28.456 25.8 31.208C25.928 31.464 26.088 31.592 26.28 31.592C26.536 31.592 26.728 31.464 26.856 31.208L40.584 2.6C41.416 0.935995 42.76 0.103994 44.616 0.103994H47.304C48.584 0.103994 49.64 0.519995 50.472 1.352C51.304 2.184 51.72 3.24 51.72 4.51999V60.584ZM103.496 52.328C103.496 54.632 102.92 56.744 101.768 58.664C100.616 60.584 99.0795 62.12 97.1595 63.272C95.2395 64.424 93.1275 65 90.8235 65H72.3915C70.0875 65 67.9435 64.424 65.9595 63.272C64.0395 62.12 62.5035 60.584 61.3515 58.664C60.1995 56.744 59.6235 54.632 59.6235 52.328V12.872C59.6235 10.504 60.1995 8.36 61.3515 6.44C62.5035 4.52 64.0395 2.984 65.9595 1.832C67.9435 0.679995 70.0875 0.103994 72.3915 0.103994H90.8235C93.1275 0.103994 95.2395 0.679995 97.1595 1.832C99.0795 2.984 100.616 4.52 101.768 6.44C102.92 8.36 103.496 10.504 103.496 12.872V52.328ZM92.0715 52.328V12.872C92.0715 11.976 91.6555 11.528 90.8235 11.528H72.3915C72.0715 11.528 71.7515 11.656 71.4315 11.912C71.1755 12.168 71.0475 12.488 71.0475 12.872V52.328C71.0475 52.648 71.1755 52.968 71.4315 53.288C71.7515 53.544 72.0715 53.672 72.3915 53.672H90.8235C91.1435 53.672 91.4315 53.544 91.6875 53.288C91.9435 52.968 92.0715 52.648 92.0715 52.328ZM155.246 52.328C155.246 54.632 154.67 56.744 153.518 58.664C152.366 60.584 150.83 62.12 148.91 63.272C146.99 64.424 144.878 65 142.574 65H124.142C121.838 65 119.694 64.424 117.71 63.272C115.79 62.12 114.254 60.584 113.102 58.664C111.95 56.744 111.374 54.632 111.374 52.328V12.872C111.374 10.504 111.95 8.36 113.102 6.44C114.254 4.52 115.79 2.984 117.71 1.832C119.694 0.679995 121.838 0.103994 124.142 0.103994H142.574C144.878 0.103994 146.99 0.679995 148.91 1.832C150.83 2.984 152.366 4.52 153.518 6.44C154.67 8.36 155.246 10.504 155.246 12.872V52.328ZM143.822 52.328V12.872C143.822 11.976 143.406 11.528 142.574 11.528H124.142C123.822 11.528 123.502 11.656 123.182 11.912C122.926 12.168 122.798 12.488 122.798 12.872V52.328C122.798 52.648 122.926 52.968 123.182 53.288C123.502 53.544 123.822 53.672 124.142 53.672H142.574C142.894 53.672 143.182 53.544 143.438 53.288C143.694 52.968 143.822 52.648 143.822 52.328ZM206.516 58.952C207.156 60.424 207.06 61.768 206.228 62.984C205.268 64.328 204.052 65 202.58 65H199.7C198.868 65 198.036 64.744 197.204 64.232C196.436 63.72 195.892 63.08 195.572 62.312L186.548 40.712C186.228 39.944 185.652 39.56 184.82 39.56H175.892C175.06 39.56 174.644 39.976 174.644 40.808V60.584C174.644 61.8 174.196 62.856 173.299 63.752C172.468 64.584 171.444 65 170.228 65H167.54C166.324 65 165.3 64.584 164.468 63.752C163.7 62.856 163.316 61.8 163.316 60.584V4.51999C163.316 3.24 163.7 2.184 164.468 1.352C165.3 0.519995 166.324 0.103994 167.54 0.103994H193.556C195.86 0.103994 197.972 0.679995 199.892 1.832C201.812 2.984 203.348 4.52 204.5 6.44C205.652 8.36 206.228 10.504 206.228 12.872V26.888C206.228 29.384 205.556 31.656 204.212 33.704C202.932 35.688 201.236 37.224 199.124 38.312C198.868 38.376 198.676 38.6 198.548 38.984C198.42 39.304 198.452 39.624 198.644 39.944L206.516 58.952ZM194.804 26.888V12.872C194.804 11.976 194.388 11.528 193.556 11.528H175.892C175.06 11.528 174.644 11.944 174.644 12.776V26.888C174.644 27.72 175.06 28.136 175.892 28.136H193.556C194.388 28.136 194.804 27.72 194.804 26.888ZM258.746 52.328C258.746 54.632 258.17 56.744 257.018 58.664C255.866 60.584 254.33 62.12 252.41 63.272C250.49 64.424 248.378 65 246.074 65H227.642C225.338 65 223.194 64.424 221.21 63.272C219.29 62.12 217.754 60.584 216.602 58.664C215.45 56.744 214.874 54.632 214.874 52.328V49.448C214.874 48.232 215.29 47.208 216.122 46.376C217.018 45.48 218.074 45.032 219.29 45.032H221.978C223.13 45.032 224.122 45.48 224.954 46.376C225.85 47.208 226.298 48.232 226.298 49.448V52.328C226.298 52.648 226.426 52.968 226.682 53.288C227.002 53.544 227.322 53.672 227.642 53.672H246.074C246.394 53.672 246.682 53.544 246.938 53.288C247.194 52.968 247.322 52.648 247.322 52.328V43.592C247.322 42.888 247.002 42.44 246.362 42.248L223.322 33.608C220.762 32.712 218.714 31.144 217.178 28.904C215.642 26.664 214.874 24.2 214.874 21.512V12.872C214.874 10.504 215.45 8.36 216.602 6.44C217.754 4.52 219.29 2.984 221.21 1.832C223.194 0.679995 225.338 0.103994 227.642 0.103994H246.074C248.378 0.103994 250.49 0.679995 252.41 1.832C254.33 2.984 255.866 4.52 257.018 6.44C258.17 8.36 258.746 10.504 258.746 12.872V15.464C258.746 16.68 258.298 17.704 257.402 18.536C256.57 19.368 255.546 19.784 254.33 19.784H251.738C250.522 19.784 249.466 19.368 248.57 18.536C247.738 17.704 247.322 16.68 247.322 15.464V12.872C247.322 11.976 246.906 11.528 246.074 11.528H227.642C227.322 11.528 227.002 11.656 226.682 11.912C226.426 12.168 226.298 12.488 226.298 12.872V21.512C226.298 22.28 226.618 22.76 227.258 22.952L250.394 31.592C252.89 32.488 254.906 34.056 256.442 36.296C257.978 38.536 258.746 40.968 258.746 43.592V52.328ZM280.928 57.8C280.928 59.784 280.192 61.48 278.72 62.888C277.312 64.296 275.616 65 273.632 65C271.712 65 270.016 64.296 268.544 62.888C267.136 61.48 266.432 59.784 266.432 57.8C266.432 55.816 267.136 54.12 268.544 52.712C270.016 51.304 271.712 50.6 273.632 50.6C275.616 50.6 277.312 51.304 278.72 52.712C280.192 54.12 280.928 55.816 280.928 57.8ZM332.328 58.952C332.968 60.424 332.872 61.768 332.04 62.984C331.08 64.328 329.864 65 328.392 65H325.512C324.68 65 323.848 64.744 323.016 64.232C322.248 63.72 321.704 63.08 321.384 62.312L312.36 40.712C312.04 39.944 311.464 39.56 310.632 39.56H301.704C300.872 39.56 300.456 39.976 300.456 40.808V60.584C300.456 61.8 300.008 62.856 299.112 63.752C298.28 64.584 297.256 65 296.04 65H293.352C292.136 65 291.112 64.584 290.28 63.752C289.512 62.856 289.128 61.8 289.128 60.584V4.51999C289.128 3.24 289.512 2.184 290.28 1.352C291.112 0.519995 292.136 0.103994 293.352 0.103994H319.368C321.672 0.103994 323.784 0.679995 325.704 1.832C327.624 2.984 329.16 4.52 330.312 6.44C331.464 8.36 332.04 10.504 332.04 12.872V26.888C332.04 29.384 331.368 31.656 330.024 33.704C328.744 35.688 327.048 37.224 324.936 38.312C324.68 38.376 324.488 38.6 324.36 38.984C324.232 39.304 324.264 39.624 324.456 39.944L332.328 58.952ZM320.616 26.888V12.872C320.616 11.976 320.2 11.528 319.368 11.528H301.704C300.872 11.528 300.456 11.944 300.456 12.776V26.888C300.456 27.72 300.872 28.136 301.704 28.136H319.368C320.2 28.136 320.616 27.72 320.616 26.888ZM352.11 60.584C352.11 61.8 351.662 62.856 350.766 63.752C349.934 64.584 348.91 65 347.694 65H345.102C343.886 65 342.83 64.584 341.934 63.752C341.102 62.856 340.686 61.8 340.686 60.584V4.51999C340.686 3.24 341.102 2.184 341.934 1.352C342.83 0.519995 343.886 0.103994 345.102 0.103994H347.694C348.91 0.103994 349.934 0.519995 350.766 1.352C351.662 2.184 352.11 3.24 352.11 4.51999V60.584ZM402.719 26.888C402.719 29.192 402.143 31.304 400.991 33.224C399.903 35.144 398.399 36.68 396.479 37.832C394.559 38.984 392.415 39.56 390.047 39.56H372.383C371.615 39.56 371.231 39.976 371.231 40.808V60.584C371.231 61.8 370.783 62.856 369.887 63.752C369.055 64.584 368.031 65 366.815 65H364.223C363.007 65 361.951 64.584 361.055 63.752C360.223 62.856 359.807 61.8 359.807 60.584V4.51999C359.807 3.24 360.223 2.184 361.055 1.352C361.951 0.519995 363.007 0.103994 364.223 0.103994H390.047C392.415 0.103994 394.559 0.679995 396.479 1.832C398.399 2.984 399.903 4.52 400.991 6.44C402.143 8.36 402.719 10.504 402.719 12.872V26.888ZM391.391 26.888V12.872C391.391 11.976 390.943 11.528 390.047 11.528H372.383C371.615 11.528 371.231 11.944 371.231 12.776V26.888C371.231 27.72 371.615 28.136 372.383 28.136H390.047C390.943 28.136 391.391 27.72 391.391 26.888Z" fill="black"/>
</svg>
